<svg width="24" height="22" viewBox="0 0 24 22" fill="none" xmlns="http://www.w3.org/2000/svg">
<g clip-path="url(#clip0)">
<path d="M22.675 0H1.325C0.593 0 0 0.543583 0 1.21458V20.7863C0 21.4564 0.593 22 1.325 22H12.82V13.4805H9.692V10.1603H12.82V7.71192C12.82 4.87025 14.713 3.32292 17.479 3.32292C18.804 3.32292 19.942 3.41367 20.274 3.454V6.424L18.356 6.42492C16.852 6.42492 16.561 7.08033 16.561 8.041V10.1613H20.148L19.681 13.4814H16.561V22H22.677C23.407 22 24 21.4564 24 20.7854V1.21458C24 0.543583 23.407 0 22.675 0V0Z" fill="white"/>
</g>
<defs>
<clipPath id="clip0">
<rect width="24" height="22" fill="white"/>
</clipPath>
</defs>
</svg>
