<svg width="54" height="54" viewBox="0 0 54 54" fill="none" xmlns="http://www.w3.org/2000/svg">
<path d="M34.9335 25.6703C32.5665 27.5648 17.0662 39.9758 13.4775 42.8513L7.40922 36.783L24.6622 15.399L34.9335 25.6703ZM46.8787 3.46952C42.255 -1.15423 34.7557 -1.15423 30.132 3.46952C27.0832 6.52052 26.8245 9.86402 26.676 11.0498L39.2985 23.6723C40.3875 23.5508 43.803 23.292 46.8787 20.2163C51.5047 15.5925 51.5047 8.09327 46.8787 3.46952ZM24.7522 43.8345C19.5952 43.8345 17.2395 47.0453 13.9162 49.1333C11.5627 50.6093 9.33522 49.86 8.26422 48.5348C7.87497 48.06 6.76347 46.35 8.65572 44.3903L8.37447 44.109L5.84097 41.6543C2.75397 44.8403 3.30072 48.6473 5.21322 51.0075C7.40697 53.7165 11.8192 55.0845 16.002 52.4588C19.5682 50.22 21.1477 47.7608 24.7522 47.7608C27.0832 47.7608 29.2072 48.8048 32.5935 54L35.8807 51.858C32.7465 47.043 29.6527 43.8345 24.7522 43.8345Z" fill="#EAEAEA"/>
</svg>
